<svg xmlns="http://www.w3.org/2000/svg" width="1200" height="720" viewBox="0 0 1200 720" role="img">
<title>Autograd Mamba Flow</title>
<defs>
<filter id="shadow" x="-20%" y="-20%" width="140%" height="140%">
  <feDropShadow dx="0" dy="12" stdDeviation="18" flood-color="#0F172A" flood-opacity="0.10"/>
</filter>
<marker id="arrow" viewBox="0 0 10 10" refX="8.5" refY="5" markerWidth="7" markerHeight="7" orient="auto-start-reverse">
  <path d="M 0 0 L 10 5 L 0 10 z" fill="#64748B"/>
</marker>
</defs>
<rect width="1200" height="720" fill="#F8FAFC"/>
<g opacity="0.38">
<line x1="60" y1="0" x2="60" y2="720" stroke="#E2E8F0" stroke-width="1"/>
<line x1="120" y1="0" x2="120" y2="720" stroke="#E2E8F0" stroke-width="1"/>
<line x1="180" y1="0" x2="180" y2="720" stroke="#E2E8F0" stroke-width="1"/>
<line x1="240" y1="0" x2="240" y2="720" stroke="#E2E8F0" stroke-width="1"/>
<line x1="300" y1="0" x2="300" y2="720" stroke="#E2E8F0" stroke-width="1"/>
<line x1="360" y1="0" x2="360" y2="720" stroke="#E2E8F0" stroke-width="1"/>
<line x1="420" y1="0" x2="420" y2="720" stroke="#E2E8F0" stroke-width="1"/>
<line x1="480" y1="0" x2="480" y2="720" stroke="#E2E8F0" stroke-width="1"/>
<line x1="540" y1="0" x2="540" y2="720" stroke="#E2E8F0" stroke-width="1"/>
<line x1="600" y1="0" x2="600" y2="720" stroke="#E2E8F0" stroke-width="1"/>
<line x1="660" y1="0" x2="660" y2="720" stroke="#E2E8F0" stroke-width="1"/>
<line x1="720" y1="0" x2="720" y2="720" stroke="#E2E8F0" stroke-width="1"/>
<line x1="780" y1="0" x2="780" y2="720" stroke="#E2E8F0" stroke-width="1"/>
<line x1="840" y1="0" x2="840" y2="720" stroke="#E2E8F0" stroke-width="1"/>
<line x1="900" y1="0" x2="900" y2="720" stroke="#E2E8F0" stroke-width="1"/>
<line x1="960" y1="0" x2="960" y2="720" stroke="#E2E8F0" stroke-width="1"/>
<line x1="1020" y1="0" x2="1020" y2="720" stroke="#E2E8F0" stroke-width="1"/>
<line x1="1080" y1="0" x2="1080" y2="720" stroke="#E2E8F0" stroke-width="1"/>
<line x1="1140" y1="0" x2="1140" y2="720" stroke="#E2E8F0" stroke-width="1"/>
<line x1="0" y1="60" x2="1200" y2="60" stroke="#E2E8F0" stroke-width="1"/>
<line x1="0" y1="120" x2="1200" y2="120" stroke="#E2E8F0" stroke-width="1"/>
<line x1="0" y1="180" x2="1200" y2="180" stroke="#E2E8F0" stroke-width="1"/>
<line x1="0" y1="240" x2="1200" y2="240" stroke="#E2E8F0" stroke-width="1"/>
<line x1="0" y1="300" x2="1200" y2="300" stroke="#E2E8F0" stroke-width="1"/>
<line x1="0" y1="360" x2="1200" y2="360" stroke="#E2E8F0" stroke-width="1"/>
<line x1="0" y1="420" x2="1200" y2="420" stroke="#E2E8F0" stroke-width="1"/>
<line x1="0" y1="480" x2="1200" y2="480" stroke="#E2E8F0" stroke-width="1"/>
<line x1="0" y1="540" x2="1200" y2="540" stroke="#E2E8F0" stroke-width="1"/>
<line x1="0" y1="600" x2="1200" y2="600" stroke="#E2E8F0" stroke-width="1"/>
<line x1="0" y1="660" x2="1200" y2="660" stroke="#E2E8F0" stroke-width="1"/>
</g>
<text x="56" y="58" font-family="Inter, Segoe UI, Arial, sans-serif" font-size="32" font-weight="760" fill="#0F172A" text-anchor="start" >Autograd + Mamba training flow</text>
<text x="56" y="89" font-family="Inter, Segoe UI, Arial, sans-serif" font-size="15" font-weight="400" fill="#64748B" text-anchor="start" >Forward path, loss, and backward signal in one clean horizontal trace</text>
<line x1="56" y1="114" x2="1144" y2="114" stroke="#E2E8F0" stroke-width="1.5"/>
<rect x="120" y="330" width="150" height="82" rx="22" fill="#E2E8F0" stroke="#475569" stroke-width="1.8"/>
<text x="195.0" y="368" font-family="Inter, Segoe UI, Arial, sans-serif" font-size="16" font-weight="720" fill="#0F172A" text-anchor="middle" >Input tokens</text>
<line x1="282" y1="371.0" x2="286" y2="371.0" stroke="#64748B" stroke-width="2.1" marker-end="url(#arrow)"/>
<rect x="300" y="330" width="150" height="82" rx="22" fill="#DBEAFE" stroke="#2563EB" stroke-width="1.8"/>
<text x="375.0" y="368" font-family="Inter, Segoe UI, Arial, sans-serif" font-size="16" font-weight="720" fill="#0F172A" text-anchor="middle" >Embedding</text>
<line x1="462" y1="371.0" x2="486" y2="371.0" stroke="#64748B" stroke-width="2.1" marker-end="url(#arrow)"/>
<rect x="500" y="330" width="150" height="82" rx="22" fill="#EDE9FE" stroke="#7C3AED" stroke-width="1.8"/>
<text x="575.0" y="368" font-family="Inter, Segoe UI, Arial, sans-serif" font-size="16" font-weight="720" fill="#0F172A" text-anchor="middle" >Mamba SSM layer</text>
<line x1="662" y1="371.0" x2="706" y2="371.0" stroke="#64748B" stroke-width="2.1" marker-end="url(#arrow)"/>
<rect x="720" y="330" width="150" height="82" rx="22" fill="#FEF3C7" stroke="#D97706" stroke-width="1.8"/>
<text x="795.0" y="368" font-family="Inter, Segoe UI, Arial, sans-serif" font-size="16" font-weight="720" fill="#0F172A" text-anchor="middle" >Output</text>
<text x="795.0" y="388" font-family="Inter, Segoe UI, Arial, sans-serif" font-size="16" font-weight="720" fill="#0F172A" text-anchor="middle" >projection</text>
<line x1="882" y1="371.0" x2="916" y2="371.0" stroke="#64748B" stroke-width="2.1" marker-end="url(#arrow)"/>
<rect x="930" y="330" width="150" height="82" rx="22" fill="#FEE2E2" stroke="#DC2626" stroke-width="1.8"/>
<text x="1005.0" y="368" font-family="Inter, Segoe UI, Arial, sans-serif" font-size="16" font-weight="720" fill="#0F172A" text-anchor="middle" >Cross-entropy</text>
<text x="1005.0" y="388" font-family="Inter, Segoe UI, Arial, sans-serif" font-size="16" font-weight="720" fill="#0F172A" text-anchor="middle" >loss</text>
<path d="M 970 455 C 800 590, 430 590, 310 455" fill="none" stroke="#059669" stroke-width="2.4" stroke-dasharray="10 8" marker-end="url(#arrow)"/>
<text x="640" y="612" font-family="Inter, Segoe UI, Arial, sans-serif" font-size="15" font-weight="650" fill="#059669" text-anchor="middle" >gradient signal returns through the computation graph</text>
<rect x="475" y="200" width="250" height="42" rx="21.0" fill="#EDE9FE" stroke="#7C3AED" stroke-width="1.2"/>
<text x="600.0" y="226.0" font-family="Inter, Segoe UI, Arial, sans-serif" font-size="13" font-weight="650" fill="#7C3AED" text-anchor="middle" >public-safe training trace</text>
</svg>
