<svg xmlns="http://www.w3.org/2000/svg" width="1200" height="720" viewBox="0 0 1200 720" role="img">
<title>Layered Architecture</title>
<defs>
<filter id="shadow" x="-20%" y="-20%" width="140%" height="140%">
  <feDropShadow dx="0" dy="12" stdDeviation="18" flood-color="#0F172A" flood-opacity="0.10"/>
</filter>
<marker id="arrow" viewBox="0 0 10 10" refX="8.5" refY="5" markerWidth="7" markerHeight="7" orient="auto-start-reverse">
  <path d="M 0 0 L 10 5 L 0 10 z" fill="#64748B"/>
</marker>
</defs>
<rect width="1200" height="720" fill="#F8FAFC"/>
<g opacity="0.38">
<line x1="60" y1="0" x2="60" y2="720" stroke="#E2E8F0" stroke-width="1"/>
<line x1="120" y1="0" x2="120" y2="720" stroke="#E2E8F0" stroke-width="1"/>
<line x1="180" y1="0" x2="180" y2="720" stroke="#E2E8F0" stroke-width="1"/>
<line x1="240" y1="0" x2="240" y2="720" stroke="#E2E8F0" stroke-width="1"/>
<line x1="300" y1="0" x2="300" y2="720" stroke="#E2E8F0" stroke-width="1"/>
<line x1="360" y1="0" x2="360" y2="720" stroke="#E2E8F0" stroke-width="1"/>
<line x1="420" y1="0" x2="420" y2="720" stroke="#E2E8F0" stroke-width="1"/>
<line x1="480" y1="0" x2="480" y2="720" stroke="#E2E8F0" stroke-width="1"/>
<line x1="540" y1="0" x2="540" y2="720" stroke="#E2E8F0" stroke-width="1"/>
<line x1="600" y1="0" x2="600" y2="720" stroke="#E2E8F0" stroke-width="1"/>
<line x1="660" y1="0" x2="660" y2="720" stroke="#E2E8F0" stroke-width="1"/>
<line x1="720" y1="0" x2="720" y2="720" stroke="#E2E8F0" stroke-width="1"/>
<line x1="780" y1="0" x2="780" y2="720" stroke="#E2E8F0" stroke-width="1"/>
<line x1="840" y1="0" x2="840" y2="720" stroke="#E2E8F0" stroke-width="1"/>
<line x1="900" y1="0" x2="900" y2="720" stroke="#E2E8F0" stroke-width="1"/>
<line x1="960" y1="0" x2="960" y2="720" stroke="#E2E8F0" stroke-width="1"/>
<line x1="1020" y1="0" x2="1020" y2="720" stroke="#E2E8F0" stroke-width="1"/>
<line x1="1080" y1="0" x2="1080" y2="720" stroke="#E2E8F0" stroke-width="1"/>
<line x1="1140" y1="0" x2="1140" y2="720" stroke="#E2E8F0" stroke-width="1"/>
<line x1="0" y1="60" x2="1200" y2="60" stroke="#E2E8F0" stroke-width="1"/>
<line x1="0" y1="120" x2="1200" y2="120" stroke="#E2E8F0" stroke-width="1"/>
<line x1="0" y1="180" x2="1200" y2="180" stroke="#E2E8F0" stroke-width="1"/>
<line x1="0" y1="240" x2="1200" y2="240" stroke="#E2E8F0" stroke-width="1"/>
<line x1="0" y1="300" x2="1200" y2="300" stroke="#E2E8F0" stroke-width="1"/>
<line x1="0" y1="360" x2="1200" y2="360" stroke="#E2E8F0" stroke-width="1"/>
<line x1="0" y1="420" x2="1200" y2="420" stroke="#E2E8F0" stroke-width="1"/>
<line x1="0" y1="480" x2="1200" y2="480" stroke="#E2E8F0" stroke-width="1"/>
<line x1="0" y1="540" x2="1200" y2="540" stroke="#E2E8F0" stroke-width="1"/>
<line x1="0" y1="600" x2="1200" y2="600" stroke="#E2E8F0" stroke-width="1"/>
<line x1="0" y1="660" x2="1200" y2="660" stroke="#E2E8F0" stroke-width="1"/>
</g>
<text x="56" y="58" font-family="Inter, Segoe UI, Arial, sans-serif" font-size="32" font-weight="760" fill="#0F172A" text-anchor="start" >Layered architecture</text>
<text x="56" y="89" font-family="Inter, Segoe UI, Arial, sans-serif" font-size="15" font-weight="400" fill="#64748B" text-anchor="start" >A readable stack diagram: high-level public view without implementation leakage</text>
<line x1="56" y1="114" x2="1144" y2="114" stroke="#E2E8F0" stroke-width="1.5"/>
<rect x="245" y="150" width="710" height="70" rx="20" fill="#EDE9FE" stroke="#7C3AED" stroke-width="1.8"/>
<text x="273" y="180" font-family="Inter, Segoe UI, Arial, sans-serif" font-size="20" font-weight="750" fill="#7C3AED" text-anchor="start" >Training &amp; inference experiments</text>
<text x="273" y="203" font-family="Inter, Segoe UI, Arial, sans-serif" font-size="14" font-weight="400" fill="#64748B" text-anchor="start" >Visible research behavior and benchmark outputs</text>
<line x1="600.0" y1="223" x2="600.0" y2="234" stroke="#64748B" stroke-width="1.5" marker-end="url(#arrow)"/>
<rect x="245" y="238" width="710" height="70" rx="20" fill="#DBEAFE" stroke="#2563EB" stroke-width="1.8"/>
<text x="273" y="268" font-family="Inter, Segoe UI, Arial, sans-serif" font-size="20" font-weight="750" fill="#2563EB" text-anchor="start" >Symbolic control bridge</text>
<text x="273" y="291" font-family="Inter, Segoe UI, Arial, sans-serif" font-size="14" font-weight="400" fill="#64748B" text-anchor="start" >Logos-style constraints and validation loop</text>
<line x1="600.0" y1="311" x2="600.0" y2="322" stroke="#64748B" stroke-width="1.5" marker-end="url(#arrow)"/>
<rect x="245" y="326" width="710" height="70" rx="20" fill="#D1FAE5" stroke="#059669" stroke-width="1.8"/>
<text x="273" y="356" font-family="Inter, Segoe UI, Arial, sans-serif" font-size="20" font-weight="750" fill="#059669" text-anchor="start" >Model and checkpoint system</text>
<text x="273" y="379" font-family="Inter, Segoe UI, Arial, sans-serif" font-size="14" font-weight="400" fill="#64748B" text-anchor="start" >state, serialization, reproducibility boundaries</text>
<line x1="600.0" y1="399" x2="600.0" y2="410" stroke="#64748B" stroke-width="1.5" marker-end="url(#arrow)"/>
<rect x="245" y="414" width="710" height="70" rx="20" fill="#FEF3C7" stroke="#D97706" stroke-width="1.8"/>
<text x="273" y="444" font-family="Inter, Segoe UI, Arial, sans-serif" font-size="20" font-weight="750" fill="#D97706" text-anchor="start" >Tensor / autograd engine</text>
<text x="273" y="467" font-family="Inter, Segoe UI, Arial, sans-serif" font-size="14" font-weight="400" fill="#64748B" text-anchor="start" >gradient flow and computation graph layer</text>
<line x1="600.0" y1="487" x2="600.0" y2="498" stroke="#64748B" stroke-width="1.5" marker-end="url(#arrow)"/>
<rect x="245" y="502" width="710" height="70" rx="20" fill="#CFFAFE" stroke="#0891B2" stroke-width="1.8"/>
<text x="273" y="532" font-family="Inter, Segoe UI, Arial, sans-serif" font-size="20" font-weight="750" fill="#0891B2" text-anchor="start" >HAL and backend dispatch</text>
<text x="273" y="555" font-family="Inter, Segoe UI, Arial, sans-serif" font-size="14" font-weight="400" fill="#64748B" text-anchor="start" >CPU / ASM / CUDA selection boundary</text>
<line x1="600.0" y1="575" x2="600.0" y2="586" stroke="#64748B" stroke-width="1.5" marker-end="url(#arrow)"/>
<rect x="245" y="590" width="710" height="70" rx="20" fill="#E2E8F0" stroke="#475569" stroke-width="1.8"/>
<text x="273" y="620" font-family="Inter, Segoe UI, Arial, sans-serif" font-size="20" font-weight="750" fill="#475569" text-anchor="start" >Runtime foundation</text>
<text x="273" y="643" font-family="Inter, Segoe UI, Arial, sans-serif" font-size="14" font-weight="400" fill="#64748B" text-anchor="start" >memory, scheduling, pools and safety fuses</text>
<path d="M180 175 L180 315" stroke="#CBD5E1" stroke-width="3" stroke-linecap="round"/>
<text x="120" y="250.0" font-family="Inter, Segoe UI, Arial, sans-serif" font-size="14" font-weight="700" fill="#64748B" text-anchor="start" >public layer</text>
<path d="M180 350 L180 500" stroke="#CBD5E1" stroke-width="3" stroke-linecap="round"/>
<text x="120" y="430.0" font-family="Inter, Segoe UI, Arial, sans-serif" font-size="14" font-weight="700" fill="#64748B" text-anchor="start" >engine layer</text>
<path d="M180 535 L180 645" stroke="#CBD5E1" stroke-width="3" stroke-linecap="round"/>
<text x="120" y="595.0" font-family="Inter, Segoe UI, Arial, sans-serif" font-size="14" font-weight="700" fill="#64748B" text-anchor="start" >system layer</text>
</svg>
