<svg xmlns="http://www.w3.org/2000/svg" width="1200" height="720" viewBox="0 0 1200 720" role="img">
<title>Project Boundary</title>
<defs>
<filter id="shadow" x="-20%" y="-20%" width="140%" height="140%">
  <feDropShadow dx="0" dy="12" stdDeviation="18" flood-color="#0F172A" flood-opacity="0.10"/>
</filter>
<marker id="arrow" viewBox="0 0 10 10" refX="8.5" refY="5" markerWidth="7" markerHeight="7" orient="auto-start-reverse">
  <path d="M 0 0 L 10 5 L 0 10 z" fill="#64748B"/>
</marker>
</defs>
<rect width="1200" height="720" fill="#F8FAFC"/>
<g opacity="0.38">
<line x1="60" y1="0" x2="60" y2="720" stroke="#E2E8F0" stroke-width="1"/>
<line x1="120" y1="0" x2="120" y2="720" stroke="#E2E8F0" stroke-width="1"/>
<line x1="180" y1="0" x2="180" y2="720" stroke="#E2E8F0" stroke-width="1"/>
<line x1="240" y1="0" x2="240" y2="720" stroke="#E2E8F0" stroke-width="1"/>
<line x1="300" y1="0" x2="300" y2="720" stroke="#E2E8F0" stroke-width="1"/>
<line x1="360" y1="0" x2="360" y2="720" stroke="#E2E8F0" stroke-width="1"/>
<line x1="420" y1="0" x2="420" y2="720" stroke="#E2E8F0" stroke-width="1"/>
<line x1="480" y1="0" x2="480" y2="720" stroke="#E2E8F0" stroke-width="1"/>
<line x1="540" y1="0" x2="540" y2="720" stroke="#E2E8F0" stroke-width="1"/>
<line x1="600" y1="0" x2="600" y2="720" stroke="#E2E8F0" stroke-width="1"/>
<line x1="660" y1="0" x2="660" y2="720" stroke="#E2E8F0" stroke-width="1"/>
<line x1="720" y1="0" x2="720" y2="720" stroke="#E2E8F0" stroke-width="1"/>
<line x1="780" y1="0" x2="780" y2="720" stroke="#E2E8F0" stroke-width="1"/>
<line x1="840" y1="0" x2="840" y2="720" stroke="#E2E8F0" stroke-width="1"/>
<line x1="900" y1="0" x2="900" y2="720" stroke="#E2E8F0" stroke-width="1"/>
<line x1="960" y1="0" x2="960" y2="720" stroke="#E2E8F0" stroke-width="1"/>
<line x1="1020" y1="0" x2="1020" y2="720" stroke="#E2E8F0" stroke-width="1"/>
<line x1="1080" y1="0" x2="1080" y2="720" stroke="#E2E8F0" stroke-width="1"/>
<line x1="1140" y1="0" x2="1140" y2="720" stroke="#E2E8F0" stroke-width="1"/>
<line x1="0" y1="60" x2="1200" y2="60" stroke="#E2E8F0" stroke-width="1"/>
<line x1="0" y1="120" x2="1200" y2="120" stroke="#E2E8F0" stroke-width="1"/>
<line x1="0" y1="180" x2="1200" y2="180" stroke="#E2E8F0" stroke-width="1"/>
<line x1="0" y1="240" x2="1200" y2="240" stroke="#E2E8F0" stroke-width="1"/>
<line x1="0" y1="300" x2="1200" y2="300" stroke="#E2E8F0" stroke-width="1"/>
<line x1="0" y1="360" x2="1200" y2="360" stroke="#E2E8F0" stroke-width="1"/>
<line x1="0" y1="420" x2="1200" y2="420" stroke="#E2E8F0" stroke-width="1"/>
<line x1="0" y1="480" x2="1200" y2="480" stroke="#E2E8F0" stroke-width="1"/>
<line x1="0" y1="540" x2="1200" y2="540" stroke="#E2E8F0" stroke-width="1"/>
<line x1="0" y1="600" x2="1200" y2="600" stroke="#E2E8F0" stroke-width="1"/>
<line x1="0" y1="660" x2="1200" y2="660" stroke="#E2E8F0" stroke-width="1"/>
</g>
<text x="56" y="58" font-family="Inter, Segoe UI, Arial, sans-serif" font-size="32" font-weight="760" fill="#0F172A" text-anchor="start" >Sonata project boundary</text>
<text x="56" y="89" font-family="Inter, Segoe UI, Arial, sans-serif" font-size="15" font-weight="400" fill="#64748B" text-anchor="start" >Public dossier framing: what the project claims, and what it explicitly does not claim</text>
<line x1="56" y1="114" x2="1144" y2="114" stroke="#E2E8F0" stroke-width="1.5"/>
<rect x="70" y="160" width="495" height="450" rx="22" fill="#FFFFFF" stroke="#CBD5E1" stroke-width="1.2" filter="url(#shadow)"/>
<rect x="70" y="160" width="6" height="450" rx="3" fill="#2563EB"/>
<text x="98" y="198" font-family="Inter, Segoe UI, Arial, sans-serif" font-size="20" font-weight="740" fill="#2563EB" text-anchor="start" >Sonata IS</text>
<text x="98" y="225" font-family="Inter, Segoe UI, Arial, sans-serif" font-size="13" font-weight="400" fill="#64748B" text-anchor="start" >laboratory evidence, reproducible</text>
<text x="98" y="243" font-family="Inter, Segoe UI, Arial, sans-serif" font-size="13" font-weight="400" fill="#64748B" text-anchor="start" >artifacts, and public-safe technical</text>
<text x="98" y="261" font-family="Inter, Segoe UI, Arial, sans-serif" font-size="13" font-weight="400" fill="#64748B" text-anchor="start" >summaries</text>
<circle cx="105" cy="300" r="5" fill="#2563EB" stroke="#2563EB" stroke-width="1.2"/>
<text x="125" y="305" font-family="Inter, Segoe UI, Arial, sans-serif" font-size="16" font-weight="500" fill="#0F172A" text-anchor="start" >Research platform for custom AI systems</text>
<circle cx="105" cy="341" r="5" fill="#2563EB" stroke="#2563EB" stroke-width="1.2"/>
<text x="125" y="346" font-family="Inter, Segoe UI, Arial, sans-serif" font-size="16" font-weight="500" fill="#0F172A" text-anchor="start" >Tensor / autograd / runtime stack</text>
<circle cx="105" cy="382" r="5" fill="#2563EB" stroke="#2563EB" stroke-width="1.2"/>
<text x="125" y="387" font-family="Inter, Segoe UI, Arial, sans-serif" font-size="16" font-weight="500" fill="#0F172A" text-anchor="start" >CPU, assembly and CUDA backend path</text>
<circle cx="105" cy="423" r="5" fill="#2563EB" stroke="#2563EB" stroke-width="1.2"/>
<text x="125" y="428" font-family="Inter, Segoe UI, Arial, sans-serif" font-size="16" font-weight="500" fill="#0F172A" text-anchor="start" >Training and inference experiments</text>
<circle cx="105" cy="464" r="5" fill="#2563EB" stroke="#2563EB" stroke-width="1.2"/>
<text x="125" y="469" font-family="Inter, Segoe UI, Arial, sans-serif" font-size="16" font-weight="500" fill="#0F172A" text-anchor="start" >INT8 quantization validation</text>
<circle cx="105" cy="505" r="5" fill="#2563EB" stroke="#2563EB" stroke-width="1.2"/>
<text x="125" y="510" font-family="Inter, Segoe UI, Arial, sans-serif" font-size="16" font-weight="500" fill="#0F172A" text-anchor="start" >Symbolic-control bridge experiments</text>
<circle cx="105" cy="546" r="5" fill="#2563EB" stroke="#2563EB" stroke-width="1.2"/>
<text x="125" y="551" font-family="Inter, Segoe UI, Arial, sans-serif" font-size="16" font-weight="500" fill="#0F172A" text-anchor="start" >Closed-source core with public evidence</text>
<rect x="635" y="160" width="495" height="450" rx="22" fill="#FFFFFF" stroke="#CBD5E1" stroke-width="1.2" filter="url(#shadow)"/>
<rect x="635" y="160" width="6" height="450" rx="3" fill="#DC2626"/>
<text x="663" y="198" font-family="Inter, Segoe UI, Arial, sans-serif" font-size="20" font-weight="740" fill="#DC2626" text-anchor="start" >Sonata IS NOT</text>
<text x="663" y="225" font-family="Inter, Segoe UI, Arial, sans-serif" font-size="13" font-weight="400" fill="#64748B" text-anchor="start" >boundaries stay visible so the portfolio</text>
<text x="663" y="243" font-family="Inter, Segoe UI, Arial, sans-serif" font-size="13" font-weight="400" fill="#64748B" text-anchor="start" >reads as evidence, not hype</text>
<circle cx="670" cy="305" r="5" fill="#DC2626" stroke="#DC2626" stroke-width="1.2"/>
<text x="690" y="310" font-family="Inter, Segoe UI, Arial, sans-serif" font-size="16" font-weight="500" fill="#0F172A" text-anchor="start" >Not a finished commercial product</text>
<circle cx="670" cy="350" r="5" fill="#DC2626" stroke="#DC2626" stroke-width="1.2"/>
<text x="690" y="355" font-family="Inter, Segoe UI, Arial, sans-serif" font-size="16" font-weight="500" fill="#0F172A" text-anchor="start" >Not a general-purpose AGI system</text>
<circle cx="670" cy="395" r="5" fill="#DC2626" stroke="#DC2626" stroke-width="1.2"/>
<text x="690" y="400" font-family="Inter, Segoe UI, Arial, sans-serif" font-size="16" font-weight="500" fill="#0F172A" text-anchor="start" >Not a deployed security product</text>
<circle cx="670" cy="440" r="5" fill="#DC2626" stroke="#DC2626" stroke-width="1.2"/>
<text x="690" y="445" font-family="Inter, Segoe UI, Arial, sans-serif" font-size="16" font-weight="500" fill="#0F172A" text-anchor="start" >Not open-source core code</text>
<circle cx="670" cy="485" r="5" fill="#DC2626" stroke="#DC2626" stroke-width="1.2"/>
<text x="690" y="490" font-family="Inter, Segoe UI, Arial, sans-serif" font-size="16" font-weight="500" fill="#0F172A" text-anchor="start" >Not guaranteed beyond the tested lab</text>
<text x="690" y="511" font-family="Inter, Segoe UI, Arial, sans-serif" font-size="16" font-weight="500" fill="#0F172A" text-anchor="start" >context</text>
<circle cx="670" cy="530" r="5" fill="#DC2626" stroke="#DC2626" stroke-width="1.2"/>
<text x="690" y="535" font-family="Inter, Segoe UI, Arial, sans-serif" font-size="16" font-weight="500" fill="#0F172A" text-anchor="start" >Not a claim of production maturity</text>
</svg>
