<svg xmlns="http://www.w3.org/2000/svg" width="1200" height="720" viewBox="0 0 1200 720" role="img">
<title>Stability Throughput</title>
<defs>
<filter id="shadow" x="-20%" y="-20%" width="140%" height="140%">
  <feDropShadow dx="0" dy="12" stdDeviation="18" flood-color="#0F172A" flood-opacity="0.10"/>
</filter>
<marker id="arrow" viewBox="0 0 10 10" refX="8.5" refY="5" markerWidth="7" markerHeight="7" orient="auto-start-reverse">
  <path d="M 0 0 L 10 5 L 0 10 z" fill="#64748B"/>
</marker>
</defs>
<rect width="1200" height="720" fill="#F8FAFC"/>
<g opacity="0.38">
<line x1="60" y1="0" x2="60" y2="720" stroke="#E2E8F0" stroke-width="1"/>
<line x1="120" y1="0" x2="120" y2="720" stroke="#E2E8F0" stroke-width="1"/>
<line x1="180" y1="0" x2="180" y2="720" stroke="#E2E8F0" stroke-width="1"/>
<line x1="240" y1="0" x2="240" y2="720" stroke="#E2E8F0" stroke-width="1"/>
<line x1="300" y1="0" x2="300" y2="720" stroke="#E2E8F0" stroke-width="1"/>
<line x1="360" y1="0" x2="360" y2="720" stroke="#E2E8F0" stroke-width="1"/>
<line x1="420" y1="0" x2="420" y2="720" stroke="#E2E8F0" stroke-width="1"/>
<line x1="480" y1="0" x2="480" y2="720" stroke="#E2E8F0" stroke-width="1"/>
<line x1="540" y1="0" x2="540" y2="720" stroke="#E2E8F0" stroke-width="1"/>
<line x1="600" y1="0" x2="600" y2="720" stroke="#E2E8F0" stroke-width="1"/>
<line x1="660" y1="0" x2="660" y2="720" stroke="#E2E8F0" stroke-width="1"/>
<line x1="720" y1="0" x2="720" y2="720" stroke="#E2E8F0" stroke-width="1"/>
<line x1="780" y1="0" x2="780" y2="720" stroke="#E2E8F0" stroke-width="1"/>
<line x1="840" y1="0" x2="840" y2="720" stroke="#E2E8F0" stroke-width="1"/>
<line x1="900" y1="0" x2="900" y2="720" stroke="#E2E8F0" stroke-width="1"/>
<line x1="960" y1="0" x2="960" y2="720" stroke="#E2E8F0" stroke-width="1"/>
<line x1="1020" y1="0" x2="1020" y2="720" stroke="#E2E8F0" stroke-width="1"/>
<line x1="1080" y1="0" x2="1080" y2="720" stroke="#E2E8F0" stroke-width="1"/>
<line x1="1140" y1="0" x2="1140" y2="720" stroke="#E2E8F0" stroke-width="1"/>
<line x1="0" y1="60" x2="1200" y2="60" stroke="#E2E8F0" stroke-width="1"/>
<line x1="0" y1="120" x2="1200" y2="120" stroke="#E2E8F0" stroke-width="1"/>
<line x1="0" y1="180" x2="1200" y2="180" stroke="#E2E8F0" stroke-width="1"/>
<line x1="0" y1="240" x2="1200" y2="240" stroke="#E2E8F0" stroke-width="1"/>
<line x1="0" y1="300" x2="1200" y2="300" stroke="#E2E8F0" stroke-width="1"/>
<line x1="0" y1="360" x2="1200" y2="360" stroke="#E2E8F0" stroke-width="1"/>
<line x1="0" y1="420" x2="1200" y2="420" stroke="#E2E8F0" stroke-width="1"/>
<line x1="0" y1="480" x2="1200" y2="480" stroke="#E2E8F0" stroke-width="1"/>
<line x1="0" y1="540" x2="1200" y2="540" stroke="#E2E8F0" stroke-width="1"/>
<line x1="0" y1="600" x2="1200" y2="600" stroke="#E2E8F0" stroke-width="1"/>
<line x1="0" y1="660" x2="1200" y2="660" stroke="#E2E8F0" stroke-width="1"/>
</g>
<text x="56" y="58" font-family="Inter, Segoe UI, Arial, sans-serif" font-size="32" font-weight="760" fill="#0F172A" text-anchor="start" >Training stability and throughput</text>
<text x="56" y="89" font-family="Inter, Segoe UI, Arial, sans-serif" font-size="15" font-weight="400" fill="#64748B" text-anchor="start" >Separate historical correction from current benchmark result</text>
<line x1="56" y1="114" x2="1144" y2="114" stroke="#E2E8F0" stroke-width="1.5"/>
<line x1="120" y1="590.0" x2="1060" y2="590.0" stroke="#E2E8F0" stroke-width="1"/>
<line x1="120" y1="516.0" x2="1060" y2="516.0" stroke="#E2E8F0" stroke-width="1"/>
<text x="100" y="521.0" font-family="Inter, Segoe UI, Arial, sans-serif" font-size="12" font-weight="500" fill="#64748B" text-anchor="end" >4k</text>
<line x1="120" y1="442.0" x2="1060" y2="442.0" stroke="#E2E8F0" stroke-width="1"/>
<text x="100" y="447.0" font-family="Inter, Segoe UI, Arial, sans-serif" font-size="12" font-weight="500" fill="#64748B" text-anchor="end" >8k</text>
<line x1="120" y1="368.0" x2="1060" y2="368.0" stroke="#E2E8F0" stroke-width="1"/>
<text x="100" y="373.0" font-family="Inter, Segoe UI, Arial, sans-serif" font-size="12" font-weight="500" fill="#64748B" text-anchor="end" >12k</text>
<line x1="120" y1="294.0" x2="1060" y2="294.0" stroke="#E2E8F0" stroke-width="1"/>
<text x="100" y="299.0" font-family="Inter, Segoe UI, Arial, sans-serif" font-size="12" font-weight="500" fill="#64748B" text-anchor="end" >16k</text>
<line x1="120" y1="220.0" x2="1060" y2="220.0" stroke="#E2E8F0" stroke-width="1"/>
<text x="100" y="225.0" font-family="Inter, Segoe UI, Arial, sans-serif" font-size="12" font-weight="500" fill="#64748B" text-anchor="end" >21k</text>
<line x1="120" y1="590" x2="1060" y2="590" stroke="#CBD5E1" stroke-width="2"/>
<rect x="165" y="554.7619047619048" width="88" height="35.238095238095234" rx="12" fill="#475569" stroke="#475569" stroke-width="0"/>
<text x="209.0" y="544.7619047619048" font-family="Inter, Segoe UI, Arial, sans-serif" font-size="13" font-weight="760" fill="#0F172A" text-anchor="middle" >2000</text>
<text x="209.0" y="624" font-family="Inter, Segoe UI, Arial, sans-serif" font-size="13" font-weight="520" fill="#64748B" text-anchor="middle" >task-87</text>
<text x="209.0" y="640" font-family="Inter, Segoe UI, Arial, sans-serif" font-size="13" font-weight="520" fill="#64748B" text-anchor="middle" >baseline</text>
<rect x="315" y="454.75619047619045" width="88" height="135.24380952380952" rx="12" fill="#DC2626" stroke="#DC2626" stroke-width="0"/>
<text x="359.0" y="444.75619047619045" font-family="Inter, Segoe UI, Arial, sans-serif" font-size="13" font-weight="760" fill="#0F172A" text-anchor="middle" >7676</text>
<text x="359.0" y="624" font-family="Inter, Segoe UI, Arial, sans-serif" font-size="13" font-weight="520" fill="#64748B" text-anchor="middle" >Phase 20</text>
<text x="359.0" y="640" font-family="Inter, Segoe UI, Arial, sans-serif" font-size="13" font-weight="520" fill="#64748B" text-anchor="middle" >pre-fix</text>
<rect x="465" y="490.2938095238095" width="88" height="99.70619047619047" rx="12" fill="#059669" stroke="#059669" stroke-width="0"/>
<text x="509.0" y="480.2938095238095" font-family="Inter, Segoe UI, Arial, sans-serif" font-size="13" font-weight="760" fill="#0F172A" text-anchor="middle" >5659</text>
<text x="509.0" y="624" font-family="Inter, Segoe UI, Arial, sans-serif" font-size="13" font-weight="520" fill="#64748B" text-anchor="middle" >Phase 20</text>
<text x="509.0" y="640" font-family="Inter, Segoe UI, Arial, sans-serif" font-size="13" font-weight="520" fill="#64748B" text-anchor="middle" >post-fix</text>
<rect x="615" y="488.63761904761907" width="88" height="101.36238095238095" rx="12" fill="#059669" stroke="#059669" stroke-width="0"/>
<text x="659.0" y="478.63761904761907" font-family="Inter, Segoe UI, Arial, sans-serif" font-size="13" font-weight="760" fill="#0F172A" text-anchor="middle" >5753</text>
<text x="659.0" y="624" font-family="Inter, Segoe UI, Arial, sans-serif" font-size="13" font-weight="520" fill="#64748B" text-anchor="middle" >AMP v2</text>
<rect x="765" y="470.1552380952381" width="88" height="119.84476190476191" rx="12" fill="#2563EB" stroke="#2563EB" stroke-width="0"/>
<text x="809.0" y="460.1552380952381" font-family="Inter, Segoe UI, Arial, sans-serif" font-size="13" font-weight="760" fill="#0F172A" text-anchor="middle" >6802</text>
<text x="809.0" y="624" font-family="Inter, Segoe UI, Arial, sans-serif" font-size="13" font-weight="520" fill="#64748B" text-anchor="middle" >Sustained</text>
<text x="809.0" y="640" font-family="Inter, Segoe UI, Arial, sans-serif" font-size="13" font-weight="520" fill="#64748B" text-anchor="middle" >current</text>
<rect x="915" y="269.8266666666667" width="88" height="320.1733333333333" rx="12" fill="#7C3AED" stroke="#7C3AED" stroke-width="0"/>
<text x="959.0" y="259.8266666666667" font-family="Inter, Segoe UI, Arial, sans-serif" font-size="13" font-weight="760" fill="#0F172A" text-anchor="middle" >18172</text>
<text x="959.0" y="624" font-family="Inter, Segoe UI, Arial, sans-serif" font-size="13" font-weight="520" fill="#64748B" text-anchor="middle" >Peak</text>
<text x="959.0" y="640" font-family="Inter, Segoe UI, Arial, sans-serif" font-size="13" font-weight="520" fill="#64748B" text-anchor="middle" >micro</text>
<line x1="740" y1="170" x2="740" y2="640" stroke="#CBD5E1" stroke-width="1.5" stroke-dasharray="8 8"/>
<text x="420" y="160" font-family="Inter, Segoe UI, Arial, sans-serif" font-size="14" font-weight="700" fill="#64748B" text-anchor="middle" >historical correction</text>
<text x="890" y="160" font-family="Inter, Segoe UI, Arial, sans-serif" font-size="14" font-weight="700" fill="#64748B" text-anchor="middle" >current result</text>
</svg>
