<svg xmlns="http://www.w3.org/2000/svg" width="1200" height="720" viewBox="0 0 1200 720" role="img">
<title>Backend Ladder</title>
<defs>
<filter id="shadow" x="-20%" y="-20%" width="140%" height="140%">
  <feDropShadow dx="0" dy="12" stdDeviation="18" flood-color="#0F172A" flood-opacity="0.10"/>
</filter>
<marker id="arrow" viewBox="0 0 10 10" refX="8.5" refY="5" markerWidth="7" markerHeight="7" orient="auto-start-reverse">
  <path d="M 0 0 L 10 5 L 0 10 z" fill="#64748B"/>
</marker>
</defs>
<rect width="1200" height="720" fill="#F8FAFC"/>
<g opacity="0.38">
<line x1="60" y1="0" x2="60" y2="720" stroke="#E2E8F0" stroke-width="1"/>
<line x1="120" y1="0" x2="120" y2="720" stroke="#E2E8F0" stroke-width="1"/>
<line x1="180" y1="0" x2="180" y2="720" stroke="#E2E8F0" stroke-width="1"/>
<line x1="240" y1="0" x2="240" y2="720" stroke="#E2E8F0" stroke-width="1"/>
<line x1="300" y1="0" x2="300" y2="720" stroke="#E2E8F0" stroke-width="1"/>
<line x1="360" y1="0" x2="360" y2="720" stroke="#E2E8F0" stroke-width="1"/>
<line x1="420" y1="0" x2="420" y2="720" stroke="#E2E8F0" stroke-width="1"/>
<line x1="480" y1="0" x2="480" y2="720" stroke="#E2E8F0" stroke-width="1"/>
<line x1="540" y1="0" x2="540" y2="720" stroke="#E2E8F0" stroke-width="1"/>
<line x1="600" y1="0" x2="600" y2="720" stroke="#E2E8F0" stroke-width="1"/>
<line x1="660" y1="0" x2="660" y2="720" stroke="#E2E8F0" stroke-width="1"/>
<line x1="720" y1="0" x2="720" y2="720" stroke="#E2E8F0" stroke-width="1"/>
<line x1="780" y1="0" x2="780" y2="720" stroke="#E2E8F0" stroke-width="1"/>
<line x1="840" y1="0" x2="840" y2="720" stroke="#E2E8F0" stroke-width="1"/>
<line x1="900" y1="0" x2="900" y2="720" stroke="#E2E8F0" stroke-width="1"/>
<line x1="960" y1="0" x2="960" y2="720" stroke="#E2E8F0" stroke-width="1"/>
<line x1="1020" y1="0" x2="1020" y2="720" stroke="#E2E8F0" stroke-width="1"/>
<line x1="1080" y1="0" x2="1080" y2="720" stroke="#E2E8F0" stroke-width="1"/>
<line x1="1140" y1="0" x2="1140" y2="720" stroke="#E2E8F0" stroke-width="1"/>
<line x1="0" y1="60" x2="1200" y2="60" stroke="#E2E8F0" stroke-width="1"/>
<line x1="0" y1="120" x2="1200" y2="120" stroke="#E2E8F0" stroke-width="1"/>
<line x1="0" y1="180" x2="1200" y2="180" stroke="#E2E8F0" stroke-width="1"/>
<line x1="0" y1="240" x2="1200" y2="240" stroke="#E2E8F0" stroke-width="1"/>
<line x1="0" y1="300" x2="1200" y2="300" stroke="#E2E8F0" stroke-width="1"/>
<line x1="0" y1="360" x2="1200" y2="360" stroke="#E2E8F0" stroke-width="1"/>
<line x1="0" y1="420" x2="1200" y2="420" stroke="#E2E8F0" stroke-width="1"/>
<line x1="0" y1="480" x2="1200" y2="480" stroke="#E2E8F0" stroke-width="1"/>
<line x1="0" y1="540" x2="1200" y2="540" stroke="#E2E8F0" stroke-width="1"/>
<line x1="0" y1="600" x2="1200" y2="600" stroke="#E2E8F0" stroke-width="1"/>
<line x1="0" y1="660" x2="1200" y2="660" stroke="#E2E8F0" stroke-width="1"/>
</g>
<text x="56" y="58" font-family="Inter, Segoe UI, Arial, sans-serif" font-size="32" font-weight="760" fill="#0F172A" text-anchor="start" >Backend dispatch chain</text>
<text x="56" y="89" font-family="Inter, Segoe UI, Arial, sans-serif" font-size="15" font-weight="400" fill="#64748B" text-anchor="start" >Fallback ladder for heterogeneous execution, presented as capability tiers</text>
<line x1="56" y1="114" x2="1144" y2="114" stroke="#E2E8F0" stroke-width="1.5"/>
<rect x="200" y="165" width="800" height="84" rx="24" fill="#FFFFFF" stroke="#CBD5E1" stroke-width="1.5" filter="url(#shadow)"/>
<circle cx="254" cy="207" r="27" fill="#D1FAE5" stroke="#059669" stroke-width="1.5"/>
<text x="254" y="213" font-family="Inter, Segoe UI, Arial, sans-serif" font-size="17" font-weight="800" fill="#059669" text-anchor="middle" >01</text>
<text x="305" y="200" font-family="Inter, Segoe UI, Arial, sans-serif" font-size="22" font-weight="780" fill="#059669" text-anchor="start" >GPU / CUDA</text>
<text x="305" y="227" font-family="Inter, Segoe UI, Arial, sans-serif" font-size="15" font-weight="400" fill="#64748B" text-anchor="start" >cuBLAS and custom-kernel route</text>
<line x1="600" y1="253" x2="600" y2="277" stroke="#64748B" stroke-width="1.6" marker-end="url(#arrow)"/>
<rect x="200" y="283" width="800" height="84" rx="24" fill="#FFFFFF" stroke="#CBD5E1" stroke-width="1.5" filter="url(#shadow)"/>
<circle cx="254" cy="325" r="27" fill="#DBEAFE" stroke="#2563EB" stroke-width="1.5"/>
<text x="254" y="331" font-family="Inter, Segoe UI, Arial, sans-serif" font-size="17" font-weight="800" fill="#2563EB" text-anchor="middle" >02</text>
<text x="305" y="318" font-family="Inter, Segoe UI, Arial, sans-serif" font-size="22" font-weight="780" fill="#2563EB" text-anchor="start" >Multithreaded CPU</text>
<text x="305" y="345" font-family="Inter, Segoe UI, Arial, sans-serif" font-size="15" font-weight="400" fill="#64748B" text-anchor="start" >Pascal thread pool route</text>
<line x1="600" y1="371" x2="600" y2="395" stroke="#64748B" stroke-width="1.6" marker-end="url(#arrow)"/>
<rect x="200" y="401" width="800" height="84" rx="24" fill="#FFFFFF" stroke="#CBD5E1" stroke-width="1.5" filter="url(#shadow)"/>
<circle cx="254" cy="443" r="27" fill="#FEF3C7" stroke="#D97706" stroke-width="1.5"/>
<text x="254" y="449" font-family="Inter, Segoe UI, Arial, sans-serif" font-size="17" font-weight="800" fill="#D97706" text-anchor="middle" >03</text>
<text x="305" y="436" font-family="Inter, Segoe UI, Arial, sans-serif" font-size="22" font-weight="780" fill="#D97706" text-anchor="start" >Assembly kernels</text>
<text x="305" y="463" font-family="Inter, Segoe UI, Arial, sans-serif" font-size="15" font-weight="400" fill="#64748B" text-anchor="start" >x86-64 SIMD optimized route</text>
<line x1="600" y1="489" x2="600" y2="513" stroke="#64748B" stroke-width="1.6" marker-end="url(#arrow)"/>
<rect x="200" y="519" width="800" height="84" rx="24" fill="#FFFFFF" stroke="#CBD5E1" stroke-width="1.5" filter="url(#shadow)"/>
<circle cx="254" cy="561" r="27" fill="#FEE2E2" stroke="#DC2626" stroke-width="1.5"/>
<text x="254" y="567" font-family="Inter, Segoe UI, Arial, sans-serif" font-size="17" font-weight="800" fill="#DC2626" text-anchor="middle" >04</text>
<text x="305" y="554" font-family="Inter, Segoe UI, Arial, sans-serif" font-size="22" font-weight="780" fill="#DC2626" text-anchor="start" >Pascal reference</text>
<text x="305" y="581" font-family="Inter, Segoe UI, Arial, sans-serif" font-size="15" font-weight="400" fill="#64748B" text-anchor="start" >portable fallback and correctness anchor</text>
<rect x="455" y="642" width="290" height="42" rx="21.0" fill="#E2E8F0" stroke="#475569" stroke-width="1.2"/>
<text x="600.0" y="668.0" font-family="Inter, Segoe UI, Arial, sans-serif" font-size="13" font-weight="650" fill="#475569" text-anchor="middle" >highest viable backend wins</text>
</svg>
