<svg xmlns="http://www.w3.org/2000/svg" width="1200" height="720" viewBox="0 0 1200 720" role="img">
<title>Benchmark Timeline</title>
<defs>
<filter id="shadow" x="-20%" y="-20%" width="140%" height="140%">
  <feDropShadow dx="0" dy="12" stdDeviation="18" flood-color="#0F172A" flood-opacity="0.10"/>
</filter>
<marker id="arrow" viewBox="0 0 10 10" refX="8.5" refY="5" markerWidth="7" markerHeight="7" orient="auto-start-reverse">
  <path d="M 0 0 L 10 5 L 0 10 z" fill="#64748B"/>
</marker>
</defs>
<rect width="1200" height="720" fill="#F8FAFC"/>
<g opacity="0.38">
<line x1="60" y1="0" x2="60" y2="720" stroke="#E2E8F0" stroke-width="1"/>
<line x1="120" y1="0" x2="120" y2="720" stroke="#E2E8F0" stroke-width="1"/>
<line x1="180" y1="0" x2="180" y2="720" stroke="#E2E8F0" stroke-width="1"/>
<line x1="240" y1="0" x2="240" y2="720" stroke="#E2E8F0" stroke-width="1"/>
<line x1="300" y1="0" x2="300" y2="720" stroke="#E2E8F0" stroke-width="1"/>
<line x1="360" y1="0" x2="360" y2="720" stroke="#E2E8F0" stroke-width="1"/>
<line x1="420" y1="0" x2="420" y2="720" stroke="#E2E8F0" stroke-width="1"/>
<line x1="480" y1="0" x2="480" y2="720" stroke="#E2E8F0" stroke-width="1"/>
<line x1="540" y1="0" x2="540" y2="720" stroke="#E2E8F0" stroke-width="1"/>
<line x1="600" y1="0" x2="600" y2="720" stroke="#E2E8F0" stroke-width="1"/>
<line x1="660" y1="0" x2="660" y2="720" stroke="#E2E8F0" stroke-width="1"/>
<line x1="720" y1="0" x2="720" y2="720" stroke="#E2E8F0" stroke-width="1"/>
<line x1="780" y1="0" x2="780" y2="720" stroke="#E2E8F0" stroke-width="1"/>
<line x1="840" y1="0" x2="840" y2="720" stroke="#E2E8F0" stroke-width="1"/>
<line x1="900" y1="0" x2="900" y2="720" stroke="#E2E8F0" stroke-width="1"/>
<line x1="960" y1="0" x2="960" y2="720" stroke="#E2E8F0" stroke-width="1"/>
<line x1="1020" y1="0" x2="1020" y2="720" stroke="#E2E8F0" stroke-width="1"/>
<line x1="1080" y1="0" x2="1080" y2="720" stroke="#E2E8F0" stroke-width="1"/>
<line x1="1140" y1="0" x2="1140" y2="720" stroke="#E2E8F0" stroke-width="1"/>
<line x1="0" y1="60" x2="1200" y2="60" stroke="#E2E8F0" stroke-width="1"/>
<line x1="0" y1="120" x2="1200" y2="120" stroke="#E2E8F0" stroke-width="1"/>
<line x1="0" y1="180" x2="1200" y2="180" stroke="#E2E8F0" stroke-width="1"/>
<line x1="0" y1="240" x2="1200" y2="240" stroke="#E2E8F0" stroke-width="1"/>
<line x1="0" y1="300" x2="1200" y2="300" stroke="#E2E8F0" stroke-width="1"/>
<line x1="0" y1="360" x2="1200" y2="360" stroke="#E2E8F0" stroke-width="1"/>
<line x1="0" y1="420" x2="1200" y2="420" stroke="#E2E8F0" stroke-width="1"/>
<line x1="0" y1="480" x2="1200" y2="480" stroke="#E2E8F0" stroke-width="1"/>
<line x1="0" y1="540" x2="1200" y2="540" stroke="#E2E8F0" stroke-width="1"/>
<line x1="0" y1="600" x2="1200" y2="600" stroke="#E2E8F0" stroke-width="1"/>
<line x1="0" y1="660" x2="1200" y2="660" stroke="#E2E8F0" stroke-width="1"/>
</g>
<text x="56" y="58" font-family="Inter, Segoe UI, Arial, sans-serif" font-size="32" font-weight="760" fill="#0F172A" text-anchor="start" >Benchmark correction timeline</text>
<text x="56" y="89" font-family="Inter, Segoe UI, Arial, sans-serif" font-size="15" font-weight="400" fill="#64748B" text-anchor="start" >Show the story: baseline → anomaly → diagnosis → stable result</text>
<line x1="56" y1="114" x2="1144" y2="114" stroke="#E2E8F0" stroke-width="1.5"/>
<line x1="130" y1="360" x2="1010" y2="360" stroke="#CBD5E1" stroke-width="8" stroke-linecap="round"/>
<circle cx="130" cy="360" r="24" fill="#FFFFFF" stroke="#475569" stroke-width="4"/>
<circle cx="130" cy="360" r="11" fill="#475569" stroke="#475569" stroke-width="1"/>
<text x="130" y="292" font-family="Inter, Segoe UI, Arial, sans-serif" font-size="18" font-weight="760" fill="#475569" text-anchor="middle" >task-87</text>
<text x="130" y="418" font-family="Inter, Segoe UI, Arial, sans-serif" font-size="14" font-weight="450" fill="#64748B" text-anchor="middle" >~2000 tok/s</text>
<circle cx="340" cy="360" r="24" fill="#FFFFFF" stroke="#DC2626" stroke-width="4"/>
<circle cx="340" cy="360" r="11" fill="#DC2626" stroke="#DC2626" stroke-width="1"/>
<text x="340" y="292" font-family="Inter, Segoe UI, Arial, sans-serif" font-size="18" font-weight="760" fill="#DC2626" text-anchor="middle" >Phase 20 pre-fix</text>
<text x="340" y="418" font-family="Inter, Segoe UI, Arial, sans-serif" font-size="14" font-weight="450" fill="#64748B" text-anchor="middle" >~7676 tok/s anomaly</text>
<circle cx="560" cy="360" r="24" fill="#FFFFFF" stroke="#D97706" stroke-width="4"/>
<circle cx="560" cy="360" r="11" fill="#D97706" stroke="#D97706" stroke-width="1"/>
<text x="560" y="292" font-family="Inter, Segoe UI, Arial, sans-serif" font-size="18" font-weight="760" fill="#D97706" text-anchor="middle" >Leak found</text>
<text x="560" y="418" font-family="Inter, Segoe UI, Arial, sans-serif" font-size="14" font-weight="450" fill="#64748B" text-anchor="middle" >VRAM overflow</text>
<text x="560" y="436" font-family="Inter, Segoe UI, Arial, sans-serif" font-size="14" font-weight="450" fill="#64748B" text-anchor="middle" >diagnosis</text>
<circle cx="780" cy="360" r="24" fill="#FFFFFF" stroke="#D97706" stroke-width="4"/>
<circle cx="780" cy="360" r="11" fill="#D97706" stroke="#D97706" stroke-width="1"/>
<text x="780" y="292" font-family="Inter, Segoe UI, Arial, sans-serif" font-size="18" font-weight="760" fill="#D97706" text-anchor="middle" >Safety fuse</text>
<text x="780" y="418" font-family="Inter, Segoe UI, Arial, sans-serif" font-size="14" font-weight="450" fill="#64748B" text-anchor="middle" >guarded execution</text>
<circle cx="1010" cy="360" r="24" fill="#FFFFFF" stroke="#059669" stroke-width="4"/>
<circle cx="1010" cy="360" r="11" fill="#059669" stroke="#059669" stroke-width="1"/>
<text x="1010" y="292" font-family="Inter, Segoe UI, Arial, sans-serif" font-size="18" font-weight="760" fill="#059669" text-anchor="middle" >Phase 20 post-fix</text>
<text x="1010" y="418" font-family="Inter, Segoe UI, Arial, sans-serif" font-size="14" font-weight="450" fill="#64748B" text-anchor="middle" >~5659 tok/s stable</text>
<rect x="458" y="555" width="285" height="42" rx="21.0" fill="#DBEAFE" stroke="#2563EB" stroke-width="1.2"/>
<text x="600.5" y="581.0" font-family="Inter, Segoe UI, Arial, sans-serif" font-size="13" font-weight="650" fill="#2563EB" text-anchor="middle" >correction is part of credibility</text>
</svg>
