<svg xmlns="http://www.w3.org/2000/svg" width="1200" height="720" viewBox="0 0 1200 720" role="img">
<title>Logos Control Loop</title>
<defs>
<filter id="shadow" x="-20%" y="-20%" width="140%" height="140%">
  <feDropShadow dx="0" dy="12" stdDeviation="18" flood-color="#0F172A" flood-opacity="0.10"/>
</filter>
<marker id="arrow" viewBox="0 0 10 10" refX="8.5" refY="5" markerWidth="7" markerHeight="7" orient="auto-start-reverse">
  <path d="M 0 0 L 10 5 L 0 10 z" fill="#64748B"/>
</marker>
</defs>
<rect width="1200" height="720" fill="#F8FAFC"/>
<g opacity="0.38">
<line x1="60" y1="0" x2="60" y2="720" stroke="#E2E8F0" stroke-width="1"/>
<line x1="120" y1="0" x2="120" y2="720" stroke="#E2E8F0" stroke-width="1"/>
<line x1="180" y1="0" x2="180" y2="720" stroke="#E2E8F0" stroke-width="1"/>
<line x1="240" y1="0" x2="240" y2="720" stroke="#E2E8F0" stroke-width="1"/>
<line x1="300" y1="0" x2="300" y2="720" stroke="#E2E8F0" stroke-width="1"/>
<line x1="360" y1="0" x2="360" y2="720" stroke="#E2E8F0" stroke-width="1"/>
<line x1="420" y1="0" x2="420" y2="720" stroke="#E2E8F0" stroke-width="1"/>
<line x1="480" y1="0" x2="480" y2="720" stroke="#E2E8F0" stroke-width="1"/>
<line x1="540" y1="0" x2="540" y2="720" stroke="#E2E8F0" stroke-width="1"/>
<line x1="600" y1="0" x2="600" y2="720" stroke="#E2E8F0" stroke-width="1"/>
<line x1="660" y1="0" x2="660" y2="720" stroke="#E2E8F0" stroke-width="1"/>
<line x1="720" y1="0" x2="720" y2="720" stroke="#E2E8F0" stroke-width="1"/>
<line x1="780" y1="0" x2="780" y2="720" stroke="#E2E8F0" stroke-width="1"/>
<line x1="840" y1="0" x2="840" y2="720" stroke="#E2E8F0" stroke-width="1"/>
<line x1="900" y1="0" x2="900" y2="720" stroke="#E2E8F0" stroke-width="1"/>
<line x1="960" y1="0" x2="960" y2="720" stroke="#E2E8F0" stroke-width="1"/>
<line x1="1020" y1="0" x2="1020" y2="720" stroke="#E2E8F0" stroke-width="1"/>
<line x1="1080" y1="0" x2="1080" y2="720" stroke="#E2E8F0" stroke-width="1"/>
<line x1="1140" y1="0" x2="1140" y2="720" stroke="#E2E8F0" stroke-width="1"/>
<line x1="0" y1="60" x2="1200" y2="60" stroke="#E2E8F0" stroke-width="1"/>
<line x1="0" y1="120" x2="1200" y2="120" stroke="#E2E8F0" stroke-width="1"/>
<line x1="0" y1="180" x2="1200" y2="180" stroke="#E2E8F0" stroke-width="1"/>
<line x1="0" y1="240" x2="1200" y2="240" stroke="#E2E8F0" stroke-width="1"/>
<line x1="0" y1="300" x2="1200" y2="300" stroke="#E2E8F0" stroke-width="1"/>
<line x1="0" y1="360" x2="1200" y2="360" stroke="#E2E8F0" stroke-width="1"/>
<line x1="0" y1="420" x2="1200" y2="420" stroke="#E2E8F0" stroke-width="1"/>
<line x1="0" y1="480" x2="1200" y2="480" stroke="#E2E8F0" stroke-width="1"/>
<line x1="0" y1="540" x2="1200" y2="540" stroke="#E2E8F0" stroke-width="1"/>
<line x1="0" y1="600" x2="1200" y2="600" stroke="#E2E8F0" stroke-width="1"/>
<line x1="0" y1="660" x2="1200" y2="660" stroke="#E2E8F0" stroke-width="1"/>
</g>
<text x="56" y="58" font-family="Inter, Segoe UI, Arial, sans-serif" font-size="32" font-weight="760" fill="#0F172A" text-anchor="start" >Neural / symbolic control loop</text>
<text x="56" y="89" font-family="Inter, Segoe UI, Arial, sans-serif" font-size="15" font-weight="400" fill="#64748B" text-anchor="start" >Keep the loop legible: signals move, constraints return</text>
<line x1="56" y1="114" x2="1144" y2="114" stroke="#E2E8F0" stroke-width="1.5"/>
<rect x="85" y="175" width="420" height="350" rx="22" fill="#FFFFFF" stroke="#CBD5E1" stroke-width="1.2" filter="url(#shadow)"/>
<rect x="85" y="175" width="6" height="350" rx="3" fill="#2563EB"/>
<text x="113" y="213" font-family="Inter, Segoe UI, Arial, sans-serif" font-size="20" font-weight="740" fill="#2563EB" text-anchor="start" >Neural stack</text>
<text x="113" y="240" font-family="Inter, Segoe UI, Arial, sans-serif" font-size="13" font-weight="400" fill="#64748B" text-anchor="start" >training and inference path</text>
<rect x="140" y="285" width="235" height="34" rx="17.0" fill="#DBEAFE" stroke="#2563EB" stroke-width="1.2"/>
<text x="257.5" y="307.0" font-family="Inter, Segoe UI, Arial, sans-serif" font-size="13" font-weight="650" fill="#2563EB" text-anchor="middle" >forward pass</text>
<rect x="140" y="339" width="235" height="34" rx="17.0" fill="#DBEAFE" stroke="#2563EB" stroke-width="1.2"/>
<text x="257.5" y="361.0" font-family="Inter, Segoe UI, Arial, sans-serif" font-size="13" font-weight="650" fill="#2563EB" text-anchor="middle" >loss computation</text>
<rect x="140" y="393" width="235" height="34" rx="17.0" fill="#DBEAFE" stroke="#2563EB" stroke-width="1.2"/>
<text x="257.5" y="415.0" font-family="Inter, Segoe UI, Arial, sans-serif" font-size="13" font-weight="650" fill="#2563EB" text-anchor="middle" >backward pass</text>
<rect x="140" y="447" width="235" height="34" rx="17.0" fill="#DBEAFE" stroke="#2563EB" stroke-width="1.2"/>
<text x="257.5" y="469.0" font-family="Inter, Segoe UI, Arial, sans-serif" font-size="13" font-weight="650" fill="#2563EB" text-anchor="middle" >weight update</text>
<rect x="695" y="175" width="420" height="350" rx="22" fill="#FFFFFF" stroke="#CBD5E1" stroke-width="1.2" filter="url(#shadow)"/>
<rect x="695" y="175" width="6" height="350" rx="3" fill="#059669"/>
<text x="723" y="213" font-family="Inter, Segoe UI, Arial, sans-serif" font-size="20" font-weight="740" fill="#059669" text-anchor="start" >Logos bridge</text>
<text x="723" y="240" font-family="Inter, Segoe UI, Arial, sans-serif" font-size="13" font-weight="400" fill="#64748B" text-anchor="start" >symbolic validation and constraint layer</text>
<rect x="750" y="285" width="250" height="34" rx="17.0" fill="#D1FAE5" stroke="#059669" stroke-width="1.2"/>
<text x="875.0" y="307.0" font-family="Inter, Segoe UI, Arial, sans-serif" font-size="13" font-weight="650" fill="#059669" text-anchor="middle" >contradiction checks</text>
<rect x="750" y="339" width="250" height="34" rx="17.0" fill="#D1FAE5" stroke="#059669" stroke-width="1.2"/>
<text x="875.0" y="361.0" font-family="Inter, Segoe UI, Arial, sans-serif" font-size="13" font-weight="650" fill="#059669" text-anchor="middle" >axiom-guided penalties</text>
<rect x="750" y="393" width="250" height="34" rx="17.0" fill="#D1FAE5" stroke="#059669" stroke-width="1.2"/>
<text x="875.0" y="415.0" font-family="Inter, Segoe UI, Arial, sans-serif" font-size="13" font-weight="650" fill="#059669" text-anchor="middle" >guarded evolution</text>
<rect x="750" y="447" width="250" height="34" rx="17.0" fill="#D1FAE5" stroke="#059669" stroke-width="1.2"/>
<text x="875.0" y="469.0" font-family="Inter, Segoe UI, Arial, sans-serif" font-size="13" font-weight="650" fill="#059669" text-anchor="middle" >constraint validation</text>
<line x1="518" y1="320" x2="680" y2="320" stroke="#64748B" stroke-width="2.4" marker-end="url(#arrow)"/>
<line x1="680" y1="430" x2="518" y2="430" stroke="#64748B" stroke-width="2.4" marker-end="url(#arrow)"/>
<text x="600" y="298" font-family="Inter, Segoe UI, Arial, sans-serif" font-size="14" font-weight="650" fill="#64748B" text-anchor="middle" >outputs / traces</text>
<text x="600" y="468" font-family="Inter, Segoe UI, Arial, sans-serif" font-size="14" font-weight="650" fill="#64748B" text-anchor="middle" >penalties / constraints</text>
<circle cx="600" cy="375" r="45" fill="#FFFFFF" stroke="#CBD5E1" stroke-width="1.5"/>
<text x="600" y="368" font-family="Inter, Segoe UI, Arial, sans-serif" font-size="16" font-weight="700" fill="#0F172A" text-anchor="middle" >review</text>
<text x="600" y="390" font-family="Inter, Segoe UI, Arial, sans-serif" font-size="14" font-weight="500" fill="#64748B" text-anchor="middle" >gate</text>
</svg>
