<svg xmlns="http://www.w3.org/2000/svg" width="1200" height="720" viewBox="0 0 1200 720" role="img">
<title>Vram Usage</title>
<defs>
<filter id="shadow" x="-20%" y="-20%" width="140%" height="140%">
  <feDropShadow dx="0" dy="12" stdDeviation="18" flood-color="#0F172A" flood-opacity="0.10"/>
</filter>
<marker id="arrow" viewBox="0 0 10 10" refX="8.5" refY="5" markerWidth="7" markerHeight="7" orient="auto-start-reverse">
  <path d="M 0 0 L 10 5 L 0 10 z" fill="#64748B"/>
</marker>
</defs>
<rect width="1200" height="720" fill="#F8FAFC"/>
<g opacity="0.38">
<line x1="60" y1="0" x2="60" y2="720" stroke="#E2E8F0" stroke-width="1"/>
<line x1="120" y1="0" x2="120" y2="720" stroke="#E2E8F0" stroke-width="1"/>
<line x1="180" y1="0" x2="180" y2="720" stroke="#E2E8F0" stroke-width="1"/>
<line x1="240" y1="0" x2="240" y2="720" stroke="#E2E8F0" stroke-width="1"/>
<line x1="300" y1="0" x2="300" y2="720" stroke="#E2E8F0" stroke-width="1"/>
<line x1="360" y1="0" x2="360" y2="720" stroke="#E2E8F0" stroke-width="1"/>
<line x1="420" y1="0" x2="420" y2="720" stroke="#E2E8F0" stroke-width="1"/>
<line x1="480" y1="0" x2="480" y2="720" stroke="#E2E8F0" stroke-width="1"/>
<line x1="540" y1="0" x2="540" y2="720" stroke="#E2E8F0" stroke-width="1"/>
<line x1="600" y1="0" x2="600" y2="720" stroke="#E2E8F0" stroke-width="1"/>
<line x1="660" y1="0" x2="660" y2="720" stroke="#E2E8F0" stroke-width="1"/>
<line x1="720" y1="0" x2="720" y2="720" stroke="#E2E8F0" stroke-width="1"/>
<line x1="780" y1="0" x2="780" y2="720" stroke="#E2E8F0" stroke-width="1"/>
<line x1="840" y1="0" x2="840" y2="720" stroke="#E2E8F0" stroke-width="1"/>
<line x1="900" y1="0" x2="900" y2="720" stroke="#E2E8F0" stroke-width="1"/>
<line x1="960" y1="0" x2="960" y2="720" stroke="#E2E8F0" stroke-width="1"/>
<line x1="1020" y1="0" x2="1020" y2="720" stroke="#E2E8F0" stroke-width="1"/>
<line x1="1080" y1="0" x2="1080" y2="720" stroke="#E2E8F0" stroke-width="1"/>
<line x1="1140" y1="0" x2="1140" y2="720" stroke="#E2E8F0" stroke-width="1"/>
<line x1="0" y1="60" x2="1200" y2="60" stroke="#E2E8F0" stroke-width="1"/>
<line x1="0" y1="120" x2="1200" y2="120" stroke="#E2E8F0" stroke-width="1"/>
<line x1="0" y1="180" x2="1200" y2="180" stroke="#E2E8F0" stroke-width="1"/>
<line x1="0" y1="240" x2="1200" y2="240" stroke="#E2E8F0" stroke-width="1"/>
<line x1="0" y1="300" x2="1200" y2="300" stroke="#E2E8F0" stroke-width="1"/>
<line x1="0" y1="360" x2="1200" y2="360" stroke="#E2E8F0" stroke-width="1"/>
<line x1="0" y1="420" x2="1200" y2="420" stroke="#E2E8F0" stroke-width="1"/>
<line x1="0" y1="480" x2="1200" y2="480" stroke="#E2E8F0" stroke-width="1"/>
<line x1="0" y1="540" x2="1200" y2="540" stroke="#E2E8F0" stroke-width="1"/>
<line x1="0" y1="600" x2="1200" y2="600" stroke="#E2E8F0" stroke-width="1"/>
<line x1="0" y1="660" x2="1200" y2="660" stroke="#E2E8F0" stroke-width="1"/>
</g>
<text x="56" y="58" font-family="Inter, Segoe UI, Arial, sans-serif" font-size="32" font-weight="760" fill="#0F172A" text-anchor="start" >VRAM usage envelope</text>
<text x="56" y="89" font-family="Inter, Segoe UI, Arial, sans-serif" font-size="15" font-weight="400" fill="#64748B" text-anchor="start" >Sustained training leaves headroom; peak benchmark consumes the cache envelope</text>
<line x1="56" y1="114" x2="1144" y2="114" stroke="#E2E8F0" stroke-width="1.5"/>
<line x1="130" y1="512.0" x2="1030" y2="512.0" stroke="#E2E8F0" stroke-width="1"/>
<text x="112" y="517.0" font-family="Inter, Segoe UI, Arial, sans-serif" font-size="12" font-weight="500" fill="#64748B" text-anchor="end" >1.76 GB</text>
<line x1="130" y1="434.0" x2="1030" y2="434.0" stroke="#E2E8F0" stroke-width="1"/>
<text x="112" y="439.0" font-family="Inter, Segoe UI, Arial, sans-serif" font-size="12" font-weight="500" fill="#64748B" text-anchor="end" >3.52 GB</text>
<line x1="130" y1="356.0" x2="1030" y2="356.0" stroke="#E2E8F0" stroke-width="1"/>
<text x="112" y="361.0" font-family="Inter, Segoe UI, Arial, sans-serif" font-size="12" font-weight="500" fill="#64748B" text-anchor="end" >5.28 GB</text>
<line x1="130" y1="278.0" x2="1030" y2="278.0" stroke="#E2E8F0" stroke-width="1"/>
<text x="112" y="283.0" font-family="Inter, Segoe UI, Arial, sans-serif" font-size="12" font-weight="500" fill="#64748B" text-anchor="end" >7.04 GB</text>
<line x1="130" y1="160" x2="130" y2="590" stroke="#CBD5E1" stroke-width="2"/>
<line x1="130" y1="590" x2="1030" y2="590" stroke="#CBD5E1" stroke-width="2"/>
<rect x="197.0" y="587.7840909090909" width="100.0" height="2.215909090909122" rx="12" fill="#059669" stroke="#059669" stroke-width="0"/>
<text x="247.0" y="575.7840909090909" font-family="Inter, Segoe UI, Arial, sans-serif" font-size="14" font-weight="760" fill="#0F172A" text-anchor="middle" >0.05 GB</text>
<text x="247.0" y="624" font-family="Inter, Segoe UI, Arial, sans-serif" font-size="13" font-weight="520" fill="#64748B" text-anchor="middle" >Sustained</text>
<text x="247.0" y="640" font-family="Inter, Segoe UI, Arial, sans-serif" font-size="13" font-weight="520" fill="#64748B" text-anchor="middle" >weights</text>
<rect x="377.0" y="539.0340909090909" width="100.0" height="50.96590909090912" rx="12" fill="#2563EB" stroke="#2563EB" stroke-width="0"/>
<text x="427.0" y="527.0340909090909" font-family="Inter, Segoe UI, Arial, sans-serif" font-size="14" font-weight="760" fill="#0F172A" text-anchor="middle" >1.15 GB</text>
<text x="427.0" y="624" font-family="Inter, Segoe UI, Arial, sans-serif" font-size="13" font-weight="520" fill="#64748B" text-anchor="middle" >Sustained</text>
<text x="427.0" y="640" font-family="Inter, Segoe UI, Arial, sans-serif" font-size="13" font-weight="520" fill="#64748B" text-anchor="middle" >active+pool</text>
<rect x="557.0" y="288.6363636363637" width="100.0" height="301.3636363636363" rx="12" fill="#475569" stroke="#475569" stroke-width="0"/>
<text x="607.0" y="276.6363636363637" font-family="Inter, Segoe UI, Arial, sans-serif" font-size="14" font-weight="760" fill="#0F172A" text-anchor="middle" >6.8 GB</text>
<text x="607.0" y="624" font-family="Inter, Segoe UI, Arial, sans-serif" font-size="13" font-weight="520" fill="#64748B" text-anchor="middle" >Sustained</text>
<text x="607.0" y="640" font-family="Inter, Segoe UI, Arial, sans-serif" font-size="13" font-weight="520" fill="#64748B" text-anchor="middle" >free</text>
<rect x="737.0" y="259.82954545454544" width="100.0" height="330.17045454545456" rx="12" fill="#D97706" stroke="#D97706" stroke-width="0"/>
<text x="787.0" y="247.82954545454544" font-family="Inter, Segoe UI, Arial, sans-serif" font-size="14" font-weight="760" fill="#0F172A" text-anchor="middle" >7.45 GB</text>
<text x="787.0" y="624" font-family="Inter, Segoe UI, Arial, sans-serif" font-size="13" font-weight="520" fill="#64748B" text-anchor="middle" >Peak</text>
<text x="787.0" y="640" font-family="Inter, Segoe UI, Arial, sans-serif" font-size="13" font-weight="520" fill="#64748B" text-anchor="middle" >active+pool</text>
<rect x="917.0" y="567.8409090909091" width="100.0" height="22.159090909090878" rx="12" fill="#DC2626" stroke="#DC2626" stroke-width="0"/>
<text x="967.0" y="555.8409090909091" font-family="Inter, Segoe UI, Arial, sans-serif" font-size="14" font-weight="760" fill="#0F172A" text-anchor="middle" >0.5 GB</text>
<text x="967.0" y="624" font-family="Inter, Segoe UI, Arial, sans-serif" font-size="13" font-weight="520" fill="#64748B" text-anchor="middle" >Peak</text>
<text x="967.0" y="640" font-family="Inter, Segoe UI, Arial, sans-serif" font-size="13" font-weight="520" fill="#64748B" text-anchor="middle" >free</text>
<rect x="720" y="120" width="345" height="86" rx="18" fill="#FFFFFF" stroke="#CBD5E1" stroke-width="1.5" filter="url(#shadow)"/>
<text x="742" y="155" font-family="Inter, Segoe UI, Arial, sans-serif" font-size="14" font-weight="500" fill="#64748B" text-anchor="start" >Public framing: 8 GB is a hard</text>
<text x="742" y="174" font-family="Inter, Segoe UI, Arial, sans-serif" font-size="14" font-weight="500" fill="#64748B" text-anchor="start" >experimental constraint.</text>
</svg>
